<svg width="49" height="48" viewBox="0 0 49 48" fill="none" xmlns="http://www.w3.org/2000/svg">
<rect x="0.5" width="48" height="48" rx="24" fill="black"/>
<path d="M36.2209 20.3365C35.9434 19.6769 35.4823 19.2013 34.8872 18.9618L34.8792 18.9588C34.6084 18.8527 34.32 18.7984 34.0291 18.7988H33.9971C32.6349 18.8193 31.2442 19.9769 30.5371 21.6797C30.0185 22.9248 29.959 24.264 30.3781 25.2622C30.6551 25.9222 31.1172 26.3978 31.7148 26.6373L31.7213 26.6398C31.9922 26.7459 32.2805 26.8001 32.5714 26.7999C33.9466 26.7999 35.3518 25.6422 36.0719 23.917C36.584 22.6733 36.6405 21.3351 36.2209 20.3365Z" fill="white"/>
<path d="M30.7781 27.6805C29.9925 27.2084 29.2499 26.7619 28.7649 25.9598C27.4267 23.7394 26.6186 22.3993 24.4998 22.3993C22.381 22.3993 21.5709 23.7394 20.2297 25.9598C19.7436 26.7629 18.9995 27.2099 18.2114 27.684C17.3078 28.2271 16.3742 28.7881 15.9711 29.8923C15.8144 30.2903 15.7355 30.7147 15.7386 31.1425C15.7386 32.9402 17.1388 34.4029 18.859 34.4029C19.7466 34.4029 20.6913 34.0954 21.6909 33.7698C22.652 33.4568 23.6457 33.1332 24.5048 33.1332C25.3639 33.1332 26.355 33.4568 27.3127 33.7698C28.3103 34.0934 29.2504 34.4009 30.1406 34.4009C31.8583 34.4009 33.256 32.9382 33.256 31.1405C33.2574 30.7124 33.1768 30.288 33.0185 29.8903C32.6154 28.7851 31.6813 28.2236 30.7781 27.6805Z" fill="white"/>
<path d="M19.1991 20.6415C19.7941 21.3881 20.5492 21.7992 21.3253 21.7992C21.4313 21.7992 21.5371 21.7913 21.6419 21.7757C23.2606 21.5376 24.2693 19.5624 23.9382 17.2751C23.7997 16.3134 23.4296 15.4178 22.8996 14.7537C22.3055 14.0086 21.5494 13.598 20.7738 13.598C20.6678 13.598 20.562 13.6059 20.4572 13.6215C18.8385 13.8596 17.8299 15.8349 18.1609 18.1222C18.2989 19.0823 18.669 19.9769 19.1991 20.6415Z" fill="white"/>
<path d="M27.3582 21.7757C27.463 21.7913 27.5688 21.7992 27.6747 21.7992C28.4513 21.7992 29.2059 21.3881 29.801 20.6415C30.3306 19.9769 30.6986 19.0823 30.8387 18.1212C31.1697 15.8349 30.1611 13.8596 28.5423 13.6205C28.4376 13.6049 28.3317 13.597 28.2258 13.597C27.4502 13.598 26.6941 14.0086 26.1 14.7537C25.5699 15.4178 25.1999 16.3134 25.0619 17.2761C24.7308 19.5624 25.7395 21.5376 27.3582 21.7757Z" fill="white"/>
<path d="M17.2783 26.6398L17.2853 26.6373C17.8819 26.3978 18.3434 25.9227 18.62 25.2632C19.039 24.263 18.98 22.9253 18.4624 21.6802C17.7459 19.9569 16.3412 18.7988 14.9675 18.7988C14.6766 18.7983 14.3882 18.8526 14.1173 18.9588L14.1103 18.9613C13.5153 19.1988 13.0537 19.6759 12.7772 20.3355C12.3581 21.3356 12.4171 22.6733 12.9347 23.9185C13.6513 25.6417 15.056 26.7999 16.4297 26.7999C16.7201 26.8001 17.0079 26.7458 17.2783 26.6398Z" fill="white"/>
</svg>
